<?xml version="1.0" standalone="no"?>
<svg style="background: #fff" xmlns="http://www.w3.org/2000/svg" xmlns:xlink="http://www.w3.org/1999/xlink" version="1.1" width="882px" height="390px" viewBox="-0.5 -0.5 882 390"><defs><style>* {margin: 0px; padding: 0px;}</style><clipPath id="mx-clip-4-288-215-26-0"><rect x="4" y="288" width="215" height="26"/></clipPath><clipPath id="mx-clip-302-275-245-26-0"><rect x="302" y="275" width="245" height="26"/></clipPath><clipPath id="mx-clip-302-301-245-26-0"><rect x="302" y="301" width="245" height="26"/></clipPath><clipPath id="mx-clip-303-31-248-26-0"><rect x="303" y="31" width="248" height="26"/></clipPath><clipPath id="mx-clip-303-57-248-26-0"><rect x="303" y="57" width="248" height="26"/></clipPath><clipPath id="mx-clip-303-83-248-26-0"><rect x="303" y="83" width="248" height="26"/></clipPath><clipPath id="mx-clip-303-109-248-26-0"><rect x="303" y="109" width="248" height="26"/></clipPath><clipPath id="mx-clip-303-135-248-26-0"><rect x="303" y="135" width="248" height="26"/></clipPath><clipPath id="mx-clip-303-161-248-26-0"><rect x="303" y="161" width="248" height="26"/></clipPath><clipPath id="mx-clip-662-235-215-26-0"><rect x="662" y="235" width="215" height="26"/></clipPath><clipPath id="mx-clip-662-340-215-26-0"><rect x="662" y="340" width="215" height="26"/></clipPath><clipPath id="mx-clip-662-366-215-26-0"><rect x="662" y="366" width="215" height="26"/></clipPath></defs><g><path d="M -0.5 282.5 L -0.5 256.5 L 222.5 256.5 L 222.5 282.5" fill="#f8cecc" stroke="#000000" stroke-miterlimit="10" pointer-events="none"/><path d="M -0.5 282.5 L -0.5 308.5 L 222.5 308.5 L 222.5 282.5" fill="none" stroke="#000000" stroke-miterlimit="10" pointer-events="none"/><path d="M -0.5 282.5 L 222.5 282.5" fill="none" stroke="#000000" stroke-miterlimit="10" pointer-events="none"/><g fill="#000000" font-family="Helvetica" font-weight="bold" text-anchor="middle" font-size="12px"><text x="109.67" y="274">Application</text></g><rect x="-0.5" y="282.5" width="223" height="26" fill="#f8cecc" stroke="none" pointer-events="none"/><g fill="#000000" font-family="Helvetica" clip-path="url(#mx-clip-4-288-215-26-0)" font-size="12px"><rect fill="#F8CECC" stroke="none" x="5" y="290" width="111" height="15" stroke-width="0"/><text x="5" y="300">+ main(String[] args)</text></g><path d="M 551 252.95 L 649.93 229.85" fill="none" stroke="#000000" stroke-width="2" stroke-miterlimit="10" pointer-events="none"/><path d="M 655.77 228.48 L 648.89 234.2 L 649.93 229.85 L 647.07 226.41 Z" fill="#000000" stroke="#000000" stroke-width="2" stroke-miterlimit="10" pointer-events="none"/><path d="M 551 318.24 L 650.69 346.4" fill="none" stroke="#000000" stroke-width="2" stroke-miterlimit="10" pointer-events="none"/><path d="M 656.46 348.04 L 647.68 349.71 L 650.69 346.4 L 649.85 342.01 Z" fill="#000000" stroke="#000000" stroke-width="2" stroke-miterlimit="10" pointer-events="none"/><path d="M 424.5 243.5 L 424.5 191.57" fill="none" stroke="#000000" stroke-width="2" stroke-miterlimit="10" pointer-events="none"/><path d="M 424.5 185.57 L 428.5 193.57 L 424.5 191.57 L 420.5 193.57 Z" fill="#000000" stroke="#000000" stroke-width="2" stroke-miterlimit="10" pointer-events="none"/><path d="M 298 269.5 L 298 243.5 L 551 243.5 L 551 269.5" fill="#f8cecc" stroke="#000000" stroke-miterlimit="10" pointer-events="none"/><path d="M 298 269.5 L 298 321.5 L 551 321.5 L 551 269.5" fill="none" stroke="#000000" stroke-miterlimit="10" pointer-events="none"/><path d="M 298 269.5 L 551 269.5" fill="none" stroke="#000000" stroke-miterlimit="10" pointer-events="none"/><g fill="#000000" font-family="Helvetica" font-weight="bold" text-anchor="middle" font-size="12px"><text x="423.17" y="261">CalculatorController</text></g><rect x="298" y="269.5" width="253" height="26" fill="#f8cecc" stroke="none" pointer-events="none"/><g fill="#000000" font-family="Helvetica" clip-path="url(#mx-clip-302-275-245-26-0)" font-size="12px"><text x="303.5" y="287">- delimiterCalculator : DelimiterCalculator</text></g><path d="M 298.33 295 L 410 295.5 L 551.67 295" fill="none" stroke="#000000" stroke-miterlimit="10" pointer-events="none"/><rect x="298" y="295.5" width="253" height="26" fill="#f8cecc" stroke="none" pointer-events="none"/><g fill="#000000" font-family="Helvetica" clip-path="url(#mx-clip-302-301-245-26-0)" font-size="12px"><rect fill="#F8CECC" stroke="none" x="304" y="303" width="38" height="15" stroke-width="0"/><text x="303.5" y="313">+ run()</text></g><path d="M 298.5 26 L 298.5 0 L 554.5 0 L 554.5 26" fill="#f8cecc" stroke="#000000" stroke-miterlimit="10" pointer-events="none"/><path d="M 298.5 26 L 298.5 182 L 554.5 182 L 554.5 26" fill="none" stroke="#000000" stroke-miterlimit="10" pointer-events="none"/><path d="M 298.5 26 L 554.5 26" fill="none" stroke="#000000" stroke-miterlimit="10" pointer-events="none"/><g fill="#000000" font-family="Helvetica" font-weight="bold" text-anchor="middle" font-size="12px"><text x="425.17" y="17.5">DelimiterCalculator</text></g><rect x="298.5" y="26" width="256" height="26" fill="#f8cecc" stroke="none" pointer-events="none"/><g fill="#000000" font-family="Helvetica" clip-path="url(#mx-clip-303-31-248-26-0)" font-size="12px"><text x="304" y="43.5">+ calculate(String) : int</text></g><rect x="298.5" y="52" width="256" height="26" fill="#f8cecc" stroke="none" pointer-events="none"/><g fill="#000000" font-family="Helvetica" clip-path="url(#mx-clip-303-57-248-26-0)" font-size="12px"><text x="304" y="69.5">- isUsingDefaultDelimiter(String) : boolean</text></g><rect x="298.5" y="78" width="256" height="26" fill="#f8cecc" stroke="none" pointer-events="none"/><g fill="#000000" font-family="Helvetica" clip-path="url(#mx-clip-303-83-248-26-0)" font-size="12px"><rect fill="#F8CECC" stroke="none" x="304" y="86" width="155" height="15" stroke-width="0"/><text x="304" y="95.5">- validateDefaultInput(String)</text></g><rect x="298.5" y="104" width="256" height="26" fill="#f8cecc" stroke="none" pointer-events="none"/><g fill="#000000" font-family="Helvetica" clip-path="url(#mx-clip-303-109-248-26-0)" font-size="12px"><rect fill="#F8CECC" stroke="none" x="304" y="112" width="158" height="15" stroke-width="0"/><text x="304" y="121.5">- validateCustomInput(String)</text></g><rect x="298.5" y="130" width="256" height="26" fill="#f8cecc" stroke="none" pointer-events="none"/><g fill="#000000" font-family="Helvetica" clip-path="url(#mx-clip-303-135-248-26-0)" font-size="12px"><rect fill="#F8CECC" stroke="none" x="304" y="138" width="145" height="15" stroke-width="0"/><text x="304" y="147.5">- splitInput(String) : String[]</text></g><rect x="298.5" y="156" width="256" height="26" fill="#f8cecc" stroke="none" pointer-events="none"/><g fill="#000000" font-family="Helvetica" clip-path="url(#mx-clip-303-161-248-26-0)" font-size="12px"><rect fill="#F8CECC" stroke="none" x="304" y="164" width="144" height="15" stroke-width="0"/><text x="304" y="173.5">- parseNumber(String) : int</text></g><path d="M 657.5 230 L 657.5 204 L 880.5 204 L 880.5 230" fill="#f8cecc" stroke="#000000" stroke-miterlimit="10" pointer-events="none"/><path d="M 657.5 230 L 657.5 256 L 880.5 256 L 880.5 230" fill="none" stroke="#000000" stroke-miterlimit="10" pointer-events="none"/><path d="M 657.5 230 L 880.5 230" fill="none" stroke="#000000" stroke-miterlimit="10" pointer-events="none"/><g fill="#000000" font-family="Helvetica" font-weight="bold" text-anchor="middle" font-size="12px"><text x="767.67" y="221.5">InputView</text></g><rect x="657.5" y="230" width="223" height="26" fill="#f8cecc" stroke="none" pointer-events="none"/><g fill="#000000" font-family="Helvetica" clip-path="url(#mx-clip-662-235-215-26-0)" font-size="12px"><text x="663" y="247.5">+ requestInput() : String</text></g><path d="M 657.5 334.5 L 657.5 308.5 L 880.5 308.5 L 880.5 334.5" fill="#f8cecc" stroke="#000000" stroke-miterlimit="10" pointer-events="none"/><path d="M 657.5 334.5 L 657.5 386.5 L 880.5 386.5 L 880.5 334.5" fill="none" stroke="#000000" stroke-miterlimit="10" pointer-events="none"/><path d="M 657.5 334.5 L 880.5 334.5" fill="none" stroke="#000000" stroke-miterlimit="10" pointer-events="none"/><g fill="#000000" font-family="Helvetica" font-weight="bold" text-anchor="middle" font-size="12px"><text x="767.67" y="326">OutputView</text></g><rect x="657.5" y="334.5" width="223" height="26" fill="#f8cecc" stroke="none" pointer-events="none"/><g fill="#000000" font-family="Helvetica" clip-path="url(#mx-clip-662-340-215-26-0)" font-size="12px"><text x="663" y="352">+ printInput()</text></g><rect x="657.5" y="360.5" width="223" height="26" fill="#f8cecc" stroke="none" pointer-events="none"/><g fill="#000000" font-family="Helvetica" clip-path="url(#mx-clip-662-366-215-26-0)" font-size="12px"><text x="663" y="378">+ printResult(int)</text></g><path d="M 223 283 L 298 283" fill="none" stroke="#000000" stroke-width="2" stroke-miterlimit="10" pointer-events="none"/></g></svg>